<svg xmlns="http://www.w3.org/2000/svg" viewBox="0 0 64 64">
  <rect width="64" height="64" rx="14" fill="#FDFAF6"/>
  <g transform="translate(12, 8)" fill="none" stroke="#9A6530" stroke-width="3.5" stroke-linecap="round" stroke-linejoin="round">
    <!-- Wrench -->
    <path d="M8 38 L26 20"/>
    <path d="M5 41 a4 4 0 0 0 6 0 l0 0 a4 4 0 0 0 0-6 l-6 6z"/>
    <path d="M26 20 a8 8 0 1 1 8-8" stroke-dasharray="0"/>
    <circle cx="30" cy="8" r="0.5" fill="#9A6530"/>
    <!-- Screwdriver (offset right) -->
    <path d="M28 34 L36 18"/>
    <path d="M36 18 L38 12 L34 12 L36 18z" fill="#9A6530"/>
    <path d="M26 38 a3 3 0 0 0 4 0 l0 0 a3 3 0 0 0 0-4"/>
  </g>
</svg>
